<?xml version="1.0" encoding="UTF-8" standalone="no"?>
<svg
   id="Layer_1"
   style="enable-background:new 0 0 128 128;"
   version="1.1"
   viewBox="0 0 128 128"
   xml:space="preserve"
   sodipodi:docname="account_avatar_head.svg"
   inkscape:version="1.1.1 (3bf5ae0d25, 2021-09-20)"
   xmlns:inkscape="http://www.inkscape.org/namespaces/inkscape"
   xmlns:sodipodi="http://sodipodi.sourceforge.net/DTD/sodipodi-0.dtd"
   xmlns="http://www.w3.org/2000/svg"
   xmlns:svg="http://www.w3.org/2000/svg"><defs
     id="defs11" /><sodipodi:namedview
     id="namedview9"
     pagecolor="#505050"
     bordercolor="#eeeeee"
     borderopacity="1"
     inkscape:pageshadow="0"
     inkscape:pageopacity="0"
     inkscape:pagecheckerboard="0"
     showgrid="false"
     inkscape:zoom="6.734375"
     inkscape:cx="63.925754"
     inkscape:cy="64.074246"
     inkscape:window-width="1920"
     inkscape:window-height="1051"
     inkscape:window-x="-9"
     inkscape:window-y="-9"
     inkscape:window-maximized="1"
     inkscape:current-layer="Layer_1" /><g
     id="g6"><path
       d="M30,49c0,18.7,15.3,34,34,34s34-15.3,34-34S82.7,15,64,15S30,30.3,30,49z M90,49c0,14.3-11.7,26-26,26S38,63.3,38,49   s11.7-26,26-26S90,34.7,90,49z"
       id="path2" /><path
       d="M 24.4,119.4 C 35,108.8 74.742942,113.46849 64,103 c -25.228808,-24.584271 29,5.8 39.6,16.4 l 5.7,-5.7 C 94.527146,92.790487 80.654524,89.802784 63.554524,89.802784 c -17.1,0 -32.309048,3.878655 -44.854524,23.897216 z"
       id="path4"
       sodipodi:nodetypes="csccscc" /></g></svg>
